# xmcd
#
# Track frame offsets: 
#        150
#        27570
#        49607
#        71220
#        95190
#        115797
#        136675
#        145827
#        154790
#        179995
#        205262
#        228502
#
# Disc length: 3374 seconds
#
# Revision: 4
# Processed by: cddbd v1.5.2PL0 Copyright (c) Steve Scherf et al.
# Submitted via: ExactAudioCopyFreeDBPlugin 1.0
#
DISCID=b40d2c0c
DTITLE=Cassandra Wilson - Blue Light 'Til Dawn
DYEAR=1993
DGENRE=Jazz
TTITLE0=You Don't Know What Love Is
TTITLE1=Come On In My Kitchen
TTITLE2=Tell Me You'll Wait For Me
TTITLE3=Children Of The Night
TTITLE4=Hellhound Of My Trail
TTITLE5=Black Crow
TTITLE6=Sankofa
TTITLE7=Estrellas
TTITLE8=Redbone
TTITLE9=Tupelo Honey
TTITLE10=Blue Light 'til Dawn
TTITLE11=I Can't Stand The Rain
EXTD=YEAR: 1993
EXTT0=
EXTT1=
EXTT2=
EXTT3=
EXTT4=
EXTT5=
EXTT6=
EXTT7=
EXTT8=
EXTT9=
EXTT10=
EXTT11=
PLAYORDER=
